# xmcd
#
# Track frame offsets: 
#        150
#        16052
#        34335
#        55762
#        81157
#        100422
#        121202
#        141670
#        161177
#        177652
#        203400
#        219077
#        235067
#
# Disc length: 3509 seconds
#
# Revision: 3
# Processed by: cddbd v1.5.2PL0 Copyright (c) Steve Scherf et al.
# Submitted via: ExactAudioCopyFreeDBPlugin 1.0
#
DISCID=b00db30d
DTITLE=Johnny Diesel and The Injectors - Johnny Diesel and The Injectors
DYEAR=1989
DGENRE=Rock
TTITLE0=Lookin' For Love
TTITLE1=Parisienne Hotel
TTITLE2=Cry In Shame
TTITLE3=Since I Fell For You
TTITLE4=Don't Need Love
TTITLE5=Comin' Home
TTITLE6=Soul Revival
TTITLE7=Fire Without A Flame
TTITLE8=Dry Tears
TTITLE9=Burn
TTITLE10=Get Ya Love
TTITLE11=Never Last
TTITLE12=Thang II
EXTD=YEAR: 1989
EXTT0=
EXTT1=
EXTT2=
EXTT3=
EXTT4=
EXTT5=
EXTT6=
EXTT7=
EXTT8=
EXTT9=
EXTT10=
EXTT11=
EXTT12=
PLAYORDER=
